{"title":"Ghost Rider Spirit Of Vengeance 2011 BRRip XViD UNiQUE","uid":7297955,"size":1893203968,"categoryP":"video","categoryS":"movies","magnet":"?xt=urn:btih:bdab65acd50782546a64a3c18b89ebeecd8fdcbb&amp;dn=Ghost+Rider+Spirit+Of+Vengeance+2011+BRRip+XViD+UNiQUE&amp;tr=udp%3A%2F%2Ftracker.openbittorrent.com%3A80&amp;tr=udp%3A%2F%2Fopen.demonii.com%3A1337&amp;tr=udp%3A%2F%2Ftracker.coppersurfer.tk%3A6969&amp;tr=udp%3A%2F%2Fexodus.desync.com%3A6969","seeders":0,"leechers":1,"uploader":"neon","files":-1,"time":1337904690,"description":" &lt;a href=&quot;http://www.imdb.com/title/tt1071875/&quot; rel=&quot;nofollow&quot; target=&quot;_NEW&quot;&gt;http://www.imdb.com/title/tt1071875/&lt;/a&gt;\n\nAs Johnny Blaze hides out in Eastern Europe, he is called upon to \nstop the devil, who is trying to take human form.\n &lt;a href=&quot;\nhttp://www.shotpix.com/images/24178688911512842029.png&quot; rel=&quot;nofollow&quot; target=&quot;_NEW&quot;&gt;\nhttp://www.shotpix.com/images/24178688911512842029.png&lt;/a&gt; &lt;a href=&quot;\nhttp://www.shotpix.com/images/87693497922400615770.png&quot; rel=&quot;nofollow&quot; target=&quot;_NEW&quot;&gt;\nhttp://www.shotpix.com/images/87693497922400615770.png&lt;/a&gt;\n\nFormat : AVI\n Format/Info : Audio Video Interleave\n File size : 1.74 GiB\n Duration : 1h 35mn\n Overall bit rate : 2 611 Kbps\n Writing application : VirtualDubMod 1.5.10.2 (build 2540/release)\n Writing library : VirtualDubMod build 2540/release\n \nVideo\n ID : 0\n Format : MPEG-4 Visual\n Format profile : Advanced Simple@L5\n Format settings, BVOP : 2\n Format settings, QPel : No\n Format settings, GMC : No warppoints\n Format settings, Matrix : Default (H.263)\n Muxing mode : Packed bitstream\n Codec ID : XVID\n Codec ID/Hint : XviD\n Duration : 1h 35mn\n Bit rate : 2 218 Kbps\n Width : 720 pixels\n Height : 304 pixels\n Display aspect ratio : 2.35:1\n Frame rate : 23.976 fps\n Color space : YUV\n Chroma subsampling : 4:2:0\n Bit depth : 8 bits\n Scan type : Progressive\n Compression mode : Lossy\n Bits/(Pixel*Frame) : 0.423\n Stream size : 1.48 GiB (85%)\n Writing library : XviD 64\n \nAudio\n ID : 1\n Format : AC-3\n Format/Info : Audio Coding 3\n Mode extension : CM (complete main)\n Format settings, Endianness : Big\n Codec ID : 2000\n Duration : 1h 35mn\n Bit rate mode : Constant\n Bit rate : 384 Kbps\n Channel(s) : 6 channels\n Channel positions : Front: L C R, Side: L R, LFE\n Sampling rate : 48.0 KHz\n Bit depth : 16 bits\n Compression mode : Lossy\n Stream size : 262 MiB (15%)\n Alignment : Split accross interleaves\n Interleave, duration : 42 ms (1.00 video frame)\n Interleave, preload duration : 500 ms ","torrent":{"xt":"urn:btih:bdab65acd50782546a64a3c18b89ebeecd8fdcbb","amp;dn":"Ghost+Rider+Spirit+Of+Vengeance+2011+BRRip+XViD+UNiQUE","amp;tr":["udp%3A%2F%2Ftracker.openbittorrent.com%3A80","udp%3A%2F%2Fopen.demonii.com%3A1337","udp%3A%2F%2Ftracker.coppersurfer.tk%3A6969","udp%3A%2F%2Fexodus.desync.com%3A6969"],"infoHash":"bdab65acd50782546a64a3c18b89ebeecd8fdcbb","infoHashBuffer":{"type":"Buffer","data":[189,171,101,172,213,7,130,84,106,100,163,193,139,137,235,238,205,143,220,187]},"announce":[],"urlList":[]}}